# Blender v2.79 (sub 0) OBJ File: ''
# www.blender.org
mtllib BowlingLane.mtl
o Cube
v 10.184696 1.903109 -10.184695
v 10.184696 1.903109 10.184696
v -10.184697 1.903109 10.184694
v -10.184692 1.903109 -10.184700
v 10.184701 2.310497 -10.184690
v 10.184690 2.310497 10.184702
v -10.184700 2.310497 10.184692
v -10.184695 2.310497 -10.184696
vt 0.000000 0.000000
vt 0.000000 -1.000000
vt -1.000000 -1.000000
vt -1.000000 0.000000
vt 0.000000 1.000000
vt -1.000000 1.000000
vt -1.000000 0.000000
vt -0.000000 -0.000000
vt 0.000000 0.053401
vt -0.000000 1.053401
vt -1.000000 1.053401
vt -1.000000 0.053401
vt 0.000000 0.053401
vt -0.000000 1.053401
vt -1.000000 1.053401
vt -1.000000 0.053401
vt 0.000000 0.053401
vt 0.000000 1.053401
vt 1.000000 1.053401
vt 1.000000 0.053401
vt 0.000000 0.053401
vt 0.000000 -0.946599
vt -1.000000 -0.946599
vt -1.000000 0.053401
vn 0.0000 -1.0000 -0.0000
vn 0.0000 1.0000 0.0000
vn 1.0000 0.0000 0.0000
vn -0.0000 -0.0000 1.0000
vn -1.0000 -0.0000 -0.0000
vn 0.0000 0.0000 -1.0000
usemtl Material
s off
f 1/1/1 2/2/1 3/3/1 4/4/1
f 5/5/2 8/6/2 7/7/2 6/8/2
f 1/9/3 5/10/3 6/11/3 2/12/3
f 2/13/4 6/14/4 7/15/4 3/16/4
f 3/17/5 7/18/5 8/19/5 4/20/5
f 5/21/6 1/22/6 4/23/6 8/24/6
